<svg xmlns="http://www.w3.org/2000/svg" xmlns:xlink="http://www.w3.org/1999/xlink" viewBox="0 0 510.15 56.02"><defs><style>.cls-1{fill:url(#Degradado_sin_nombre_4);}.cls-2{fill:url(#Degradado_sin_nombre_4-2);}.cls-3{fill:url(#Degradado_sin_nombre_4-3);}.cls-4{fill:url(#Degradado_sin_nombre_4-4);}.cls-5{fill:url(#Degradado_sin_nombre_4-5);}.cls-6{fill:url(#Degradado_sin_nombre_4-6);}.cls-7{fill:url(#Degradado_sin_nombre_4-7);}.cls-8{fill:url(#Degradado_sin_nombre_4-8);}.cls-9{fill:url(#Degradado_sin_nombre_4-9);}.cls-10{fill:url(#Degradado_sin_nombre_4-10);}.cls-11{fill:url(#Degradado_sin_nombre_4-11);}.cls-12{fill:#0047bb;}.cls-13{fill:#ff9e1b;}.cls-14{fill:#74aa50;}</style><linearGradient id="Degradado_sin_nombre_4" x1="160.71" y1="30.34" x2="495.41" y2="108.06" gradientUnits="userSpaceOnUse"><stop offset="0" stop-color="#0047bb"/><stop offset="1" stop-color="#ff9e1b"/></linearGradient><linearGradient id="Degradado_sin_nombre_4-2" x1="162.56" y1="22.38" x2="497.26" y2="100.11" xlink:href="#Degradado_sin_nombre_4"/><linearGradient id="Degradado_sin_nombre_4-3" x1="162.35" y1="23.28" x2="497.05" y2="101.01" xlink:href="#Degradado_sin_nombre_4"/><linearGradient id="Degradado_sin_nombre_4-4" x1="164.39" y1="14.52" x2="499.09" y2="92.25" xlink:href="#Degradado_sin_nombre_4"/><linearGradient id="Degradado_sin_nombre_4-5" x1="165.86" y1="8.19" x2="500.55" y2="85.92" xlink:href="#Degradado_sin_nombre_4"/><linearGradient id="Degradado_sin_nombre_4-6" x1="167.49" y1="1.16" x2="502.19" y2="78.89" xlink:href="#Degradado_sin_nombre_4"/><linearGradient id="Degradado_sin_nombre_4-7" x1="171.25" y1="-15.04" x2="505.95" y2="62.69" xlink:href="#Degradado_sin_nombre_4"/><linearGradient id="Degradado_sin_nombre_4-8" x1="173.1" y1="-22.99" x2="507.8" y2="54.74" xlink:href="#Degradado_sin_nombre_4"/><linearGradient id="Degradado_sin_nombre_4-9" x1="172.91" y1="-22.17" x2="507.61" y2="55.56" xlink:href="#Degradado_sin_nombre_4"/><linearGradient id="Degradado_sin_nombre_4-10" x1="174.98" y1="-31.1" x2="509.68" y2="46.63" xlink:href="#Degradado_sin_nombre_4"/><linearGradient id="Degradado_sin_nombre_4-11" x1="178.56" y1="-46.53" x2="513.26" y2="31.2" xlink:href="#Degradado_sin_nombre_4"/></defs><title>color</title><g id="Capa_2" data-name="Capa 2"><g id="Capa_2-2" data-name="Capa 2"><path class="cls-1" d="M133.64,29.37v-.49c0-13.28,9.3-22.33,21.72-22.33,10.53,0,18.36,5.14,19.4,15.91H164.6c-.73-5.27-3.67-8.08-9.17-8.08-6.92,0-11.32,5.38-11.32,14.44v.49c0,9.05,4.16,14.32,11.38,14.32,5.44,0,9.24-2.76,10-8.39h9.73c-1.1,10.83-8.87,16.4-19.64,16.4C141.29,51.64,133.64,42.83,133.64,29.37Z"/><path class="cls-2" d="M181.13,4.47h8.81V51h-8.81Z"/><path class="cls-3" d="M196.06,35.37v-.49c0-10.1,7.16-16.65,16.46-16.65,8.26,0,15.6,4.84,15.6,16.28V37H205.05c.25,5.32,3.12,8.38,8,8.38,4.1,0,6.12-1.78,6.67-4.47h8.38c-1,6.92-6.55,10.77-15.3,10.77C203.1,51.64,196.06,45.58,196.06,35.37Zm23.43-3.86c-.3-4.83-2.75-7.16-7-7.16-4,0-6.67,2.63-7.34,7.16Z"/><path class="cls-4" d="M230,19h9.48l7.65,22.88L254.68,19h8.56L251.62,51h-10Z"/><path class="cls-5" d="M264.53,35.37v-.49c0-10.1,7.16-16.65,16.46-16.65,8.26,0,15.6,4.84,15.6,16.28V37H273.53c.24,5.32,3.12,8.38,8,8.38,4.1,0,6.12-1.78,6.67-4.47h8.38c-1,6.92-6.55,10.77-15.3,10.77C271.57,51.64,264.53,45.58,264.53,35.37ZM288,31.51c-.31-4.83-2.76-7.16-7-7.16-4,0-6.67,2.63-7.34,7.16Z"/><path class="cls-6" d="M302.41,19h8.87v6.12c2-4.29,5.14-6.55,10.34-6.61v8.26c-6.55-.06-10.34,2.08-10.34,8.2V51h-8.87Z"/><path class="cls-7" d="M339.55,29.37v-.49c0-13.28,9.3-22.33,21.72-22.33,10.53,0,18.36,5.14,19.4,15.91H370.51c-.73-5.27-3.67-8.08-9.18-8.08-6.91,0-11.32,5.38-11.32,14.44v.49c0,9.05,4.16,14.32,11.38,14.32,5.45,0,9.24-2.76,10-8.39h9.73c-1.11,10.83-8.87,16.4-19.64,16.4C347.2,51.64,339.55,42.83,339.55,29.37Z"/><path class="cls-8" d="M387,4.47h8.81V51H387Z"/><path class="cls-9" d="M402,35.3v-.48c0-10,7.28-16.59,16.88-16.59s16.83,6.43,16.83,16.4v.49c0,10.1-7.28,16.52-16.89,16.52S402,45.28,402,35.3Zm24.71-.12v-.43c0-6.11-2.87-9.79-7.83-9.79S411,28.51,411,34.63v.49c0,6.12,2.82,9.79,7.83,9.79S426.68,41.24,426.68,35.18Z"/><path class="cls-10" d="M441.37,39.59V19h8.81V38.36c0,4.35,1.78,6.43,5.57,6.43s6.67-2.33,6.67-7V19h8.81V51h-8.81V46c-1.65,3.24-4.89,5.69-10.16,5.69C446,51.64,441.37,48,441.37,39.59Z"/><path class="cls-11" d="M477.17,35.43v-.49c0-10.53,6.06-16.71,14.07-16.71,5.14,0,8.32,2.27,10.1,5.51V4.47h8.81V51h-8.81V45.65a11.65,11.65,0,0,1-10.28,6C483.29,51.64,477.17,46.07,477.17,35.43Zm24.41-.31v-.49c0-6.36-2.81-9.6-7.64-9.6s-7.71,3.36-7.71,9.72v.49c0,6.37,3.06,9.49,7.46,9.49C498.34,44.73,501.58,41.61,501.58,35.12Z"/><path class="cls-12" d="M1.4,27.88,6.25,30.3a16.65,16.65,0,0,0,4.84,17c2.35,2.11,8.55,3.88,13.73,1.62C37.75,43.22,32.9,30.3,32.9,30.3l4.85-2.42s4.84,12.92-4,21.8A20,20,0,0,1,9.48,52.92C-5,43.88,1.4,27.88,1.4,27.88Z"/><path class="cls-13" d="M32.29,27.75l4.85-2.42A16.65,16.65,0,0,1,42,8.37c2.35-2.11,8.55-3.88,13.73-1.62,12.93,5.66,8.08,18.58,8.08,18.58l4.85,2.42s4.84-12.92-4-21.81A20,20,0,0,0,40.37,2.71C25.92,11.74,32.29,27.75,32.29,27.75Z"/><path class="cls-14" d="M63,28.27l4.85,2.42s-3.23,9.7,4.85,17c2.34,2.11,8.55,3.88,13.73,1.61,12.92-5.65,8.08-18.58,8.08-18.58l4.84-2.42s4.85,12.92-4,21.81a20,20,0,0,1-24.23,3.23C56.61,44.28,63,28.27,63,28.27Z"/></g></g></svg>